# xmcd
#
# Track frame offsets: 
#        150
#        12077
#        24872
#        36217
#        49345
#        61825
#        76290
#        88725
#        101775
#        113150
#        125180
#        138760
#        152140
#        166155
#        179320
#        191807
#        205147
#        218287
#        230897
#        242450
#
# Disc length: 3411 seconds
#
# Revision: 21
# Processed by: cddbd v1.5.2PL0 Copyright (c) Steve Scherf et al.
# Submitted via: ExactAudioCopy v1.0b3
#
DISCID=080d5114
DTITLE=Motown Classics Gold - Motown Classics Gold
DYEAR=2005
DGENRE=Other
TTITLE0=Money (That's What I Want) - Barrett Strong
TTITLE1=Shop Around - The Miracles
TTITLE2=Please Mr. Postman - The Marvelettes
TTITLE3=Do You Love Me - The Contours
TTITLE4=You Beat Me To The Punch - Mary Wells
TTITLE5=Fingertips, Pt. 2 - Little Stevie Wonder
TTITLE6=(Love Is Like A) Heat Wave - Martha and The Vandellas
TTITLE7=My Guy - Mary Wells
TTITLE8=Where Did Our Love Go - The Supremes
TTITLE9=Dancing In The Street - Martha and The Vandellas
TTITLE10=How Sweet It Is (To Be Loved By You) - Marvin Gaye
TTITLE11=My Girl - The Temptations
TTITLE12=Shotgun - Jr. Walker and The All Stars
TTITLE13=Stop! In The Name Of Love - The Supremes
TTITLE14=I Can't Help Myself (Sugar Pie, Honey Bunch) - Four Tops
TTITLE15=The Tracks Of My Tears - Smokey Robinson and The Miracles
TTITLE16=Uptight (Everything's Alright) - Stevie Wonder
TTITLE17=Going To A Go-Go - The Miracles
TTITLE18=Ain't Too Proud To Beg - The Temptations
TTITLE19=What Becomes Of The Brokenhearted - Jimmy Ruffin
EXTD=
EXTT0=
EXTT1=
EXTT2=
EXTT3=
EXTT4=
EXTT5=
EXTT6=
EXTT7=
EXTT8=
EXTT9=
EXTT10=
EXTT11=
EXTT12=
EXTT13=
EXTT14=
EXTT15=
EXTT16=
EXTT17=
EXTT18=
EXTT19=
PLAYORDER=
